<?xml version="1.0" encoding="UTF-8"?>
<svg width="128" height="128" viewBox="0 0 128 128" fill="none" xmlns="http://www.w3.org/2000/svg">
  <!-- 背景圆形 -->
  <circle cx="64" cy="64" r="60" fill="#4CAF50"/>
  
  <!-- Git 标志 -->
  <path d="M122.88 58.88L69.12 5.12C67.84 3.84 66.24 3.2 64.64 3.2C63.04 3.2 61.44 3.84 60.16 5.12L48.64 16.64L63.36 31.36C65.28 30.72 67.52 30.88 69.12 32.48C70.72 34.08 70.88 36.32 70.24 38.24L84.48 52.48C86.4 51.84 88.64 52 90.24 53.6C92.48 55.84 92.48 59.52 90.24 61.76C88 64 84.32 64 82.08 61.76C80.48 60.16 80.32 57.92 80.96 56L67.2 42.24V85.12C67.84 85.44 68.48 85.92 69.12 86.56C71.36 88.8 71.36 92.48 69.12 94.72C66.88 96.96 63.2 96.96 60.96 94.72C58.72 92.48 58.72 88.8 60.96 86.56C61.76 85.76 62.72 85.28 63.68 85.12V41.76C62.72 41.6 61.76 41.12 60.96 40.32C59.36 38.72 59.2 36.48 59.84 34.56L45.28 20L5.12 60.16C3.84 61.44 3.2 63.04 3.2 64.64C3.2 66.24 3.84 67.84 5.12 69.12L58.88 122.88C60.16 124.16 61.76 124.8 63.36 124.8C64.96 124.8 66.56 124.16 67.84 122.88L122.88 67.84C124.16 66.56 124.8 64.96 124.8 63.36C124.8 61.76 124.16 60.16 122.88 58.88Z" fill="white"/>
  
  <!-- AI 文字 -->
  <text x="64" y="100" font-family="Arial, sans-serif" font-size="24" font-weight="bold" text-anchor="middle" fill="#1A1A1A">AI</text>
</svg>
